<svg xmlns="http://www.w3.org/2000/svg" viewBox="0 0 760 234" width="760" height="234" role="img" aria-label="Lines of code: 5,020 of plugin code and 13,574 of Apple HIG reference.">
  <style>
    text { font-family: -apple-system, BlinkMacSystemFont, 'Segoe UI', Helvetica, Arial, sans-serif; fill: #1f2328; }
    .muted { fill: #656d76; }
    .track { fill: #eaeef2; }
    .value { font-weight: 600; }
    @media (prefers-color-scheme: dark) {
      text { fill: #e6edf3; }
      .muted { fill: #8b949e; }
      .track { fill: #21262d; }
    }
  </style>
  <text x="24" y="38" font-size="17" font-weight="700">Lines of code</text>
  <text class="muted" x="736" y="38" font-size="12" text-anchor="end">auto-updated by CI</text>

  <text x="24" y="92" font-size="13" font-weight="600">Plugin code</text>
  <rect class="track" x="200" y="72" width="470" height="30" rx="5"/>
  <rect x="200.0" y="72" width="85.1" height="30" fill="#e34c26"><title>HTML: 2,458 lines</title></rect><rect x="285.1" y="72" width="71.7" height="30" fill="#f1c40f"><title>JavaScript: 2,072 lines</title></rect><rect x="356.9" y="72" width="9.1" height="30" fill="#7fb86b"><title>JSON: 264 lines</title></rect><rect x="366.0" y="72" width="3.0" height="30" fill="#2aa198"><title>YAML: 87 lines</title></rect><rect x="369.0" y="72" width="2.5" height="30" fill="#f05138"><title>Swift: 73 lines</title></rect><rect x="371.5" y="72" width="1.6" height="30" fill="#9aa0a6"><title>Other: 45 lines</title></rect><rect x="373.1" y="72" width="0.7" height="30" fill="#ff9f1a"><title>SVG: 21 lines</title></rect>
  <text class="value" x="383.8175924561662" y="92" font-size="13">5,020</text>

  <text x="24" y="144" font-size="13" font-weight="600">HIG reference</text>
  <text class="muted" x="24" y="159" font-size="10.5">Markdown</text>
  <rect class="track" x="200" y="124" width="470" height="30" rx="5"/>
  <rect x="200" y="124" width="470.0" height="30" rx="5" fill="#4a7fd6"><title>Apple HIG reference: 13,574 lines</title></rect>
  <text class="value" x="680" y="144" font-size="13">13,574</text>

  <rect x="24" y="175" width="11" height="11" rx="2" fill="#e34c26"/><text class="muted" x="40" y="184" font-size="11.5">HTML 2,458</text><rect x="125" y="175" width="11" height="11" rx="2" fill="#f1c40f"/><text class="muted" x="141" y="184" font-size="11.5">JavaScript 2,072</text><rect x="266.2" y="175" width="11" height="11" rx="2" fill="#7fb86b"/><text class="muted" x="282.2" y="184" font-size="11.5">JSON 264</text><rect x="353.79999999999995" y="175" width="11" height="11" rx="2" fill="#2aa198"/><text class="muted" x="369.79999999999995" y="184" font-size="11.5">YAML 87</text><rect x="434.69999999999993" y="175" width="11" height="11" rx="2" fill="#f05138"/><text class="muted" x="450.69999999999993" y="184" font-size="11.5">Swift 73</text><rect x="522.3" y="175" width="11" height="11" rx="2" fill="#9aa0a6"/><text class="muted" x="538.3" y="184" font-size="11.5">Other 45</text><rect x="609.9" y="175" width="11" height="11" rx="2" fill="#ff9f1a"/><text class="muted" x="625.9" y="184" font-size="11.5">SVG 21</text>
  <text class="muted" x="24" y="218" font-size="11.5">18,594 lines across 248 text files · updated 2026-06-24 · binary assets excluded</text>
</svg>
