<svg xmlns="http://www.w3.org/2000/svg" viewBox="0 0 760 234" width="760" height="234" role="img" aria-label="Lines of code: 6,045 of plugin code and 15,920 of Apple HIG reference.">
  <style>
    text { font-family: -apple-system, BlinkMacSystemFont, 'Segoe UI', Helvetica, Arial, sans-serif; fill: #1f2328; }
    .muted { fill: #656d76; }
    .track { fill: #eaeef2; }
    .value { font-weight: 600; }
    @media (prefers-color-scheme: dark) {
      text { fill: #e6edf3; }
      .muted { fill: #8b949e; }
      .track { fill: #21262d; }
    }
  </style>
  <text x="24" y="38" font-size="17" font-weight="700">Lines of code</text>
  <text class="muted" x="736" y="38" font-size="12" text-anchor="end">auto-updated by CI</text>

  <text x="24" y="92" font-size="13" font-weight="600">Plugin code</text>
  <rect class="track" x="200" y="72" width="470" height="30" rx="5"/>
  <rect x="200.0" y="72" width="81.1" height="30" fill="#f1c40f"><title>JavaScript: 2,748 lines</title></rect><rect x="281.1" y="72" width="72.5" height="30" fill="#e34c26"><title>HTML: 2,457 lines</title></rect><rect x="353.7" y="72" width="9.9" height="30" fill="#7fb86b"><title>JSON: 337 lines</title></rect><rect x="363.6" y="72" width="8.9" height="30" fill="#9aa0a6"><title>Other: 301 lines</title></rect><rect x="372.5" y="72" width="3.2" height="30" fill="#2aa198"><title>YAML: 108 lines</title></rect><rect x="375.7" y="72" width="2.2" height="30" fill="#f05138"><title>Swift: 73 lines</title></rect><rect x="377.8" y="72" width="0.6" height="30" fill="#ff9f1a"><title>SVG: 21 lines</title></rect>
  <text class="value" x="388.4641959798995" y="92" font-size="13">6,045</text>

  <text x="24" y="144" font-size="13" font-weight="600">HIG reference</text>
  <text class="muted" x="24" y="159" font-size="10.5">Markdown</text>
  <rect class="track" x="200" y="124" width="470" height="30" rx="5"/>
  <rect x="200" y="124" width="470.0" height="30" rx="5" fill="#4a7fd6"><title>Apple HIG reference: 15,920 lines</title></rect>
  <text class="value" x="680" y="144" font-size="13">15,920</text>

  <rect x="24" y="175" width="11" height="11" rx="2" fill="#f1c40f"/><text class="muted" x="40" y="184" font-size="11.5">JavaScript 2,748</text><rect x="165.2" y="175" width="11" height="11" rx="2" fill="#e34c26"/><text class="muted" x="181.2" y="184" font-size="11.5">HTML 2,457</text><rect x="266.2" y="175" width="11" height="11" rx="2" fill="#7fb86b"/><text class="muted" x="282.2" y="184" font-size="11.5">JSON 337</text><rect x="353.79999999999995" y="175" width="11" height="11" rx="2" fill="#9aa0a6"/><text class="muted" x="369.79999999999995" y="184" font-size="11.5">Other 301</text><rect x="448.09999999999997" y="175" width="11" height="11" rx="2" fill="#2aa198"/><text class="muted" x="464.09999999999997" y="184" font-size="11.5">YAML 108</text><rect x="535.6999999999999" y="175" width="11" height="11" rx="2" fill="#f05138"/><text class="muted" x="551.6999999999999" y="184" font-size="11.5">Swift 73</text><rect x="623.3" y="175" width="11" height="11" rx="2" fill="#ff9f1a"/><text class="muted" x="639.3" y="184" font-size="11.5">SVG 21</text>
  <text class="muted" x="24" y="218" font-size="11.5">21,965 lines across 275 text files · updated 2026-06-24 · binary assets excluded</text>
</svg>
