<svg xmlns="http://www.w3.org/2000/svg" viewBox="0 0 760 234" width="760" height="234" role="img" aria-label="Lines of code: 9,201 of plugin code and 19,090 of Apple HIG reference.">
  <style>
    text { font-family: -apple-system, BlinkMacSystemFont, 'Segoe UI', Helvetica, Arial, sans-serif; fill: #1f2328; }
    .muted { fill: #656d76; }
    .track { fill: #eaeef2; }
    .value { font-weight: 600; }
    @media (prefers-color-scheme: dark) {
      text { fill: #e6edf3; }
      .muted { fill: #8b949e; }
      .track { fill: #21262d; }
    }
  </style>
  <text x="24" y="38" font-size="17" font-weight="700">Lines of code</text>
  <text class="muted" x="736" y="38" font-size="12" text-anchor="end">auto-updated by CI</text>

  <text x="24" y="92" font-size="13" font-weight="600">Plugin code</text>
  <rect class="track" x="200" y="72" width="470" height="30" rx="5"/>
  <rect x="200.0" y="72" width="128.5" height="30" fill="#f1c40f"><title>JavaScript: 5,220 lines</title></rect><rect x="328.5" y="72" width="62.6" height="30" fill="#e34c26"><title>HTML: 2,543 lines</title></rect><rect x="391.1" y="72" width="16.1" height="30" fill="#9aa0a6"><title>Other: 655 lines</title></rect><rect x="407.3" y="72" width="11.8" height="30" fill="#7fb86b"><title>JSON: 479 lines</title></rect><rect x="419.0" y="72" width="5.2" height="30" fill="#2aa198"><title>YAML: 210 lines</title></rect><rect x="424.2" y="72" width="1.8" height="30" fill="#f05138"><title>Swift: 73 lines</title></rect><rect x="426.0" y="72" width="0.5" height="30" fill="#ff9f1a"><title>SVG: 21 lines</title></rect>
  <text class="value" x="436.530644316396" y="92" font-size="13">9,201</text>

  <text x="24" y="144" font-size="13" font-weight="600">HIG reference</text>
  <text class="muted" x="24" y="159" font-size="10.5">Markdown</text>
  <rect class="track" x="200" y="124" width="470" height="30" rx="5"/>
  <rect x="200" y="124" width="470.0" height="30" rx="5" fill="#4a7fd6"><title>Apple HIG reference: 19,090 lines</title></rect>
  <text class="value" x="680" y="144" font-size="13">19,090</text>

  <rect x="24" y="175" width="11" height="11" rx="2" fill="#f1c40f"/><text class="muted" x="40" y="184" font-size="11.5">JavaScript 5,220</text><rect x="165.2" y="175" width="11" height="11" rx="2" fill="#e34c26"/><text class="muted" x="181.2" y="184" font-size="11.5">HTML 2,543</text><rect x="266.2" y="175" width="11" height="11" rx="2" fill="#9aa0a6"/><text class="muted" x="282.2" y="184" font-size="11.5">Other 655</text><rect x="360.5" y="175" width="11" height="11" rx="2" fill="#7fb86b"/><text class="muted" x="376.5" y="184" font-size="11.5">JSON 479</text><rect x="448.1" y="175" width="11" height="11" rx="2" fill="#2aa198"/><text class="muted" x="464.1" y="184" font-size="11.5">YAML 210</text><rect x="535.7" y="175" width="11" height="11" rx="2" fill="#f05138"/><text class="muted" x="551.7" y="184" font-size="11.5">Swift 73</text><rect x="623.3000000000001" y="175" width="11" height="11" rx="2" fill="#ff9f1a"/><text class="muted" x="639.3000000000001" y="184" font-size="11.5">SVG 21</text>
  <text class="muted" x="24" y="218" font-size="11.5">28,291 lines across 301 text files · updated 2026-07-08 · binary assets excluded</text>
</svg>
